<?xml version="1.0" standalone="no"?><!DOCTYPE svg PUBLIC "-//W3C//DTD SVG 1.1//EN" "http://www.w3.org/Graphics/SVG/1.1/DTD/svg11.dtd"><svg t="1496863271100" class="icon" style="" viewBox="0 0 1024 1024" version="1.1" xmlns="http://www.w3.org/2000/svg" p-id="1433" xmlns:xlink="http://www.w3.org/1999/xlink" width="200" height="200"><defs><style type="text/css">@font-face { font-family: "TIMES NEW ROMAN"; src: local("TIMES NEW ROMAN"); font-weight: 400; }
@font-face { font-family: "TIMES NEW ROMAN"; font-weight: 400; src: local("Microsoft YaHei UI"), local("Microsoft YaHei"), local("微软雅黑"), local("微軟雅黑"), local("WenQuanYi Micro Hei"), local("Droid Sans Fallback"); unicode-range: U+2E80-9FFF, U+F900-FAFF, U+FE30-FE6F, U+FF00-FFEF, U+1B000-1B0FF, U+20000-2FA1F; }
@font-face { font-family: "TIMES NEW ROMAN"; font-weight: bold; src: local("Microsoft YaHei UI"), local("Microsoft YaHei"), local("微软雅黑"), local("微軟雅黑"), local("WenQuanYi Micro Hei"), local("Droid Sans Fallback"); unicode-range: U+2E80-9FFF, U+F900-FAFF, U+FE30-FE6F, U+FF00-FFEF, U+1B000-1B0FF, U+20000-2FA1F; }
@font-face { font-family: TAHOMA; src: local("TAHOMA"); font-weight: 400; }
@font-face { font-family: TAHOMA; font-weight: 400; src: local("Microsoft YaHei UI"), local("Microsoft YaHei"), local("微软雅黑"), local("微軟雅黑"), local("WenQuanYi Micro Hei"), local("Droid Sans Fallback"); unicode-range: U+2E80-9FFF, U+F900-FAFF, U+FE30-FE6F, U+FF00-FFEF, U+1B000-1B0FF, U+20000-2FA1F; }
@font-face { font-family: TAHOMA; font-weight: bold; src: local("Microsoft YaHei UI"), local("Microsoft YaHei"), local("微软雅黑"), local("微軟雅黑"), local("WenQuanYi Micro Hei"), local("Droid Sans Fallback"); unicode-range: U+2E80-9FFF, U+F900-FAFF, U+FE30-FE6F, U+FF00-FFEF, U+1B000-1B0FF, U+20000-2FA1F; }
@font-face { font-family: "MICROSOFT YAHEI"; src: local("MICROSOFT YAHEI"); font-weight: 400; }
@font-face { font-family: "MICROSOFT YAHEI"; font-weight: 400; src: local("Microsoft YaHei UI"), local("Microsoft YaHei"), local("微软雅黑"), local("微軟雅黑"), local("WenQuanYi Micro Hei"), local("Droid Sans Fallback"); unicode-range: U+2E80-9FFF, U+F900-FAFF, U+FE30-FE6F, U+FF00-FFEF, U+1B000-1B0FF, U+20000-2FA1F; }
@font-face { font-family: "MICROSOFT YAHEI"; font-weight: bold; src: local("Microsoft YaHei UI"), local("Microsoft YaHei"), local("微软雅黑"), local("微軟雅黑"), local("WenQuanYi Micro Hei"), local("Droid Sans Fallback"); unicode-range: U+2E80-9FFF, U+F900-FAFF, U+FE30-FE6F, U+FF00-FFEF, U+1B000-1B0FF, U+20000-2FA1F; }
@font-face { font-family: 微软雅黑; src: local("微软雅黑"); font-weight: 400; }
@font-face { font-family: 微软雅黑; font-weight: 400; src: local("Microsoft YaHei UI"), local("Microsoft YaHei"), local("微软雅黑"), local("微軟雅黑"), local("WenQuanYi Micro Hei"), local("Droid Sans Fallback"); unicode-range: U+2E80-9FFF, U+F900-FAFF, U+FE30-FE6F, U+FF00-FFEF, U+1B000-1B0FF, U+20000-2FA1F; }
@font-face { font-family: 微软雅黑; font-weight: bold; src: local("Microsoft YaHei UI"), local("Microsoft YaHei"), local("微软雅黑"), local("微軟雅黑"), local("WenQuanYi Micro Hei"), local("Droid Sans Fallback"); unicode-range: U+2E80-9FFF, U+F900-FAFF, U+FE30-FE6F, U+FF00-FFEF, U+1B000-1B0FF, U+20000-2FA1F; }
@font-face { font-family: "TIMES NEW ROMAN"; src: local("TIMES NEW ROMAN"); font-weight: 700; }
@font-face { font-family: "TIMES NEW ROMAN"; font-weight: 700; src: local("Microsoft YaHei UI"), local("Microsoft YaHei"), local("微软雅黑"), local("微軟雅黑"), local("WenQuanYi Micro Hei"), local("Droid Sans Fallback"); unicode-range: U+2E80-9FFF, U+F900-FAFF, U+FE30-FE6F, U+FF00-FFEF, U+1B000-1B0FF, U+20000-2FA1F; }
@font-face { font-family: "TIMES NEW ROMAN"; font-weight: bold; src: local("Microsoft YaHei UI"), local("Microsoft YaHei"), local("微软雅黑"), local("微軟雅黑"), local("WenQuanYi Micro Hei"), local("Droid Sans Fallback"); unicode-range: U+2E80-9FFF, U+F900-FAFF, U+FE30-FE6F, U+FF00-FFEF, U+1B000-1B0FF, U+20000-2FA1F; }
@font-face { font-family: TAHOMA; src: local("TAHOMA"); font-weight: 700; }
@font-face { font-family: TAHOMA; font-weight: 700; src: local("Microsoft YaHei UI"), local("Microsoft YaHei"), local("微软雅黑"), local("微軟雅黑"), local("WenQuanYi Micro Hei"), local("Droid Sans Fallback"); unicode-range: U+2E80-9FFF, U+F900-FAFF, U+FE30-FE6F, U+FF00-FFEF, U+1B000-1B0FF, U+20000-2FA1F; }
@font-face { font-family: TAHOMA; font-weight: bold; src: local("Microsoft YaHei UI"), local("Microsoft YaHei"), local("微软雅黑"), local("微軟雅黑"), local("WenQuanYi Micro Hei"), local("Droid Sans Fallback"); unicode-range: U+2E80-9FFF, U+F900-FAFF, U+FE30-FE6F, U+FF00-FFEF, U+1B000-1B0FF, U+20000-2FA1F; }
@font-face { font-family: "MICROSOFT YAHEI"; src: local("MICROSOFT YAHEI"); font-weight: 700; }
@font-face { font-family: "MICROSOFT YAHEI"; font-weight: 700; src: local("Microsoft YaHei UI"), local("Microsoft YaHei"), local("微软雅黑"), local("微軟雅黑"), local("WenQuanYi Micro Hei"), local("Droid Sans Fallback"); unicode-range: U+2E80-9FFF, U+F900-FAFF, U+FE30-FE6F, U+FF00-FFEF, U+1B000-1B0FF, U+20000-2FA1F; }
@font-face { font-family: "MICROSOFT YAHEI"; font-weight: bold; src: local("Microsoft YaHei UI"), local("Microsoft YaHei"), local("微软雅黑"), local("微軟雅黑"), local("WenQuanYi Micro Hei"), local("Droid Sans Fallback"); unicode-range: U+2E80-9FFF, U+F900-FAFF, U+FE30-FE6F, U+FF00-FFEF, U+1B000-1B0FF, U+20000-2FA1F; }
@font-face { font-family: 微软雅黑; src: local("微软雅黑"); font-weight: 700; }
@font-face { font-family: 微软雅黑; font-weight: 700; src: local("Microsoft YaHei UI"), local("Microsoft YaHei"), local("微软雅黑"), local("微軟雅黑"), local("WenQuanYi Micro Hei"), local("Droid Sans Fallback"); unicode-range: U+2E80-9FFF, U+F900-FAFF, U+FE30-FE6F, U+FF00-FFEF, U+1B000-1B0FF, U+20000-2FA1F; }
@font-face { font-family: 微软雅黑; font-weight: bold; src: local("Microsoft YaHei UI"), local("Microsoft YaHei"), local("微软雅黑"), local("微軟雅黑"), local("WenQuanYi Micro Hei"), local("Droid Sans Fallback"); unicode-range: U+2E80-9FFF, U+F900-FAFF, U+FE30-FE6F, U+FF00-FFEF, U+1B000-1B0FF, U+20000-2FA1F; }
</style></defs><path d="M783.662957 333.02145c0-30.915544-25.086881-55.923659-56.002425-55.923659-30.876161 0-55.963042 25.008115-55.963042 55.923659 0 30.915544 25.086881 55.963042 55.963042 55.963042C758.615459 388.984491 783.662957 363.936994 783.662957 333.02145zM703.755137 333.02145c0-13.23264 10.712137-23.984161 23.905395-23.984161 13.311406 0 24.023544 10.712137 24.023544 23.984161s-10.712137 23.984161-24.023544 23.984161C714.506657 357.005611 703.755137 346.25409 703.755137 333.02145z" p-id="1434" fill="#2c2c2c"></path><path d="M92.966388 723.541873l67.502219 0 0-324.160307L105.726434 399.381566c-7.679657 19.652046-21.857486 36.901738-42.533487 51.67031-20.636618 14.729189-39.776687 24.732435-57.380825 30.049121l0 56.199339c33.436047-10.160777 62.500596-25.756389 87.154265-46.904984L92.966388 723.541873z" p-id="1435" fill="#2c2c2c"></path><path d="M262.273295 583.181366c-9.451886 14.61104-14.177829 30.600481-14.177829 48.125853 0 31.742584 12.563132 56.63255 37.728778 74.866814 21.306126 15.398698 47.968321 23.117738 79.986585 23.117738 34.460001 0 61.988619-9.333737 82.743385-28.001212 20.715383-18.628092 31.112458-42.84855 31.112458-72.621991 0-18.116115-5.080389-33.987407-15.280549-47.81079-10.160777-13.862766-24.968732-24.299224-44.50263-31.506287 15.398698-6.143726 27.252938-15.083635 35.799018-26.780344 8.467315-11.657326 12.68128-25.008115 12.68128-39.973601 0-24.062926-9.254972-43.95127-27.725532-59.704413-18.509943-15.674378-44.463247-23.550949-77.938677-23.550949-33.790492 0-59.861945 7.837189-78.214357 23.550949-18.313029 15.753143-27.489235 35.641487-27.489235 59.704413 0 14.099063 4.017052 27.056024 11.933006 38.870881 7.915955 11.814857 20.597235 21.109212 38.043841 27.883064C286.611902 557.267445 271.725181 568.570325 262.273295 583.181366zM332.414166 459.007214c7.679657-7.049532 18.037349-10.554606 30.994309-10.554606 12.484366 0 22.487612 3.505074 30.127887 10.47584 7.600892 6.970766 11.460412 16.26512 11.460412 27.883064 0 12.326835-3.820137 21.975635-11.499795 28.946401-7.679657 6.970766-17.958583 10.436457-30.758012 10.436457-12.641898 0-22.802675-3.426309-30.403567-10.318309-7.600892-6.931383-11.421029-16.5408-11.421029-28.867635C320.874989 475.390483 324.734509 466.056745 332.414166 459.007214zM326.782417 591.412383c8.112869-10.397075 20.400321-15.595612 36.901738-15.595612 14.256595 0 26.032069 4.568412 35.287041 13.784 9.294355 9.136823 13.941532 21.306126 13.941532 36.468527 0 17.289075-4.568412 30.521715-13.705235 39.737304-9.136823 9.136823-20.676001 13.784-34.57815 13.784-14.256595 0-26.150218-4.765326-35.68087-14.33536-9.530652-9.530652-14.295978-22.802675-14.295978-39.855453C314.652497 613.151721 318.669549 601.809458 326.782417 591.412383z" p-id="1436" fill="#2c2c2c"></path><path d="M544.687772 432.384401c-23.038972 26.701578-34.57815 70.455934-34.57815 131.263067 0 61.949236 10.515223 105.034083 31.427521 129.136392 20.991063 24.141692 48.598447 36.271612 82.861534 36.271612 34.066172 0 60.688985-11.066583 79.710905-33.081601 23.078355-26.740961 34.617532-70.613465 34.617532-131.656895 0-61.279728-11.460412-105.073466-34.381235-131.499364-19.179452-22.290698-45.88103-33.47543-79.947202-33.47543C590.293122 399.381566 563.709693 410.369384 544.687772 432.384401zM661.891159 486.260151c4.1352 14.177829 6.222492 40.209898 6.222492 78.096208 0 37.88631-2.323589 64.706036-6.970766 80.537945-3.544457 12.326835-8.506697 20.912298-14.88672 25.677624-6.419406 4.765326-13.705235 7.16768-21.857486 7.16768s-15.398698-2.362971-21.739338-7.049532c-6.301257-4.68656-11.57856-14.138446-15.71376-28.316275-4.1352-14.177829-6.261874-40.170515-6.261874-78.017442 0-37.88631 2.362971-64.863568 7.010149-80.853008 3.505074-12.326835 8.467315-20.912298 14.88672-25.677624 6.380023-4.765326 13.705235-7.128297 21.857486-7.128297s15.43808 2.362971 21.778721 7.128297C652.478656 462.591054 657.677193 472.082322 661.891159 486.260151z" p-id="1437" fill="#2c2c2c"></path><path d="M920.045795 210.107549C761.884236-6.931383 464.071061-62.736893 238.958643 75.181877L197.409728 18.194881l-96.881831 228.971938 247.60003-22.211932L301.774302 161.35157c177.419777-103.576917 408.597155-57.971567 532.141181 111.492872 131.775044 180.806702 91.919591 435.101819-88.847728 566.876862-169.385674 123.504644-403.280469 96.212323-540.450964-56.396253L72.251004 783.325052c6.419406 10.239543 12.720663 20.479086 19.848961 30.324801 166.392576 228.30243 487.48102 278.59434 715.704684 112.201763C1036.185844 759.419657 1086.438371 438.370596 920.045795 210.107549z" p-id="1438" fill="#2c2c2c"></path></svg>